<svg width="33" height="23" viewBox="0 0 33 23" fill="none" xmlns="http://www.w3.org/2000/svg">
<path fill-rule="evenodd" clip-rule="evenodd" d="M0.5 2.5C0.5 1.11929 1.61929 0 3 0H30C31.3807 0 32.5 1.11929 32.5 2.5C32.5 3.88071 31.3807 5 30 5H3C1.61929 5 0.5 3.88071 0.5 2.5ZM0.5 11C0.5 9.61929 1.61929 8.5 3 8.5H30C31.3807 8.5 32.5 9.61929 32.5 11C32.5 12.3807 31.3807 13.5 30 13.5H3C1.61929 13.5 0.5 12.3807 0.5 11ZM3 17.5C1.61929 17.5 0.5 18.6193 0.5 20C0.5 21.3807 1.61929 22.5 3 22.5H30C31.3807 22.5 32.5 21.3807 32.5 20C32.5 18.6193 31.3807 17.5 30 17.5H3Z" fill="#A87C79"/>
</svg>
