<svg width="37" height="64" viewBox="0 0 37 64" fill="none" xmlns="http://www.w3.org/2000/svg">
<path d="M28.36 32.04C27.68 33.36 27.04 34.68 26.4 36C25.24 38.24 21.96 44.36 19 44.36C18.28 44.36 17.84 44 17.68 43.28C17.48 42.56 17.52 41.6 17.72 40.36C18.24 37.16 19.36 33.96 20.48 30.96C21.12 29.16 21.8 27.36 22.52 25.48C23.2 23.64 23.88 21.84 24.48 20.12C25.08 18.4 25.64 16.84 26.08 15.4C26.52 13.96 26.76 12.76 26.88 11.76C26.92 11.4 26.84 11.08 26.6 10.88C26.32 10.68 26.04 10.6 25.68 10.6C25.36 10.6 25.04 10.68 24.76 10.88C24.44 11.08 24.2 11.36 24.08 11.72C23.96 12 23.8 12.28 23.68 12.6L23.2 13.64C22.92 14.32 22.52 15.2 22 16.32C21.48 17.44 20.88 18.68 20.2 20.08C17.4 25.84 14.2 32.32 10 37.24C8.72 38.72 6.64 40.76 4.52 40.76C3.56 40.76 2.96 40.4 2.68 39.68C2.4 38.96 2.36 38 2.56 36.76C2.76 35.56 3.12 34.16 3.68 32.56C4.2 30.96 4.8 29.28 5.48 27.52L7.52 22.16C8.68 19.12 9.84 15.84 10.12 12.56C10.24 11.24 10.04 10.16 9.6 9.32C9.48 9.04 9.28 8.88 9 8.88C8.72 8.88 8.52 9.04 8.32 9.36C8.12 9.68 8.04 10.04 8.12 10.44C8.24 11.12 8.16 12.08 7.8 13.32C7.44 14.6 7 16.04 6.4 17.64L4.48 22.8C2.96 26.68 0.24 33.6 0.24 37.8C0.2 39.08 0.48 40.12 1 40.88C1.52 41.64 2.4 42.04 3.68 42.04C11.2 42.04 19.88 23.04 23.12 15.96C22.6 17.64 21.96 19.52 21.2 21.64C20.44 23.76 19.64 25.92 18.88 28.08C18.12 30.28 17.4 32.4 16.8 34.44C16.2 36.52 15.8 38.36 15.64 39.96C15.48 41.6 15.64 42.88 16.08 43.88C16.52 44.88 17.4 45.36 18.72 45.36C22.32 45.36 25.72 39.28 27.24 36.28C27.92 34.96 28.6 33.6 29.28 32.24C29.36 32.08 29.36 31.96 29.28 31.88C29.16 31.8 29.04 31.76 28.92 31.76C28.64 31.76 28.48 31.84 28.36 32.04ZM21.64 0.0399981C21.04 -3.8147e-06 20.48 0.119997 19.96 0.399996C18.28 1.32 17.16 3.04 16.32 4.72C16.2 4.92 16.16 5.08 16.24 5.2C16.32 5.32 16.44 5.4 16.56 5.4C16.84 5.4 17.04 5.24 17.2 4.96C17.56 4.12 18.12 3.48 18.8 2.96C19.48 2.44 20.2 2.2 21 2.24C21.32 2.16 21.6 2 21.8 1.76C22 1.56 22.16 1.32 22.24 1.04C22.28 0.759998 22.28 0.519997 22.2 0.319997C22.08 0.119997 21.92 0.0399981 21.64 0.0399981ZM32.1141 27.72C32.2341 27.32 32.1941 27 31.9541 26.8C31.7141 26.6 31.3941 26.48 31.0341 26.48C30.2341 26.48 29.5141 26.92 29.2741 27.72C28.9141 28.92 28.4341 30.68 27.9141 32.96C27.3541 35.28 26.6341 37.96 25.7941 41L25.0341 41.52C23.6341 42.48 22.0741 43.52 20.3541 44.64C16.1141 47.4 9.95406 52 8.55406 57.16C8.31406 58 8.23406 58.8 8.27406 59.56C8.31406 60.32 8.47406 61 8.79406 61.6C9.43406 62.96 10.9541 63.6 12.3941 63.6C20.2341 63.6 24.6741 52.08 26.9941 45.6C27.6341 43.72 28.2341 41.88 28.7541 40.04C30.3541 38.96 31.9941 37.84 33.3941 36.52C34.6741 35.32 35.6341 33.8 36.4341 32.24C36.5541 32.08 36.5541 31.96 36.4741 31.84C36.3541 31.76 36.2341 31.72 36.1141 31.72C35.8341 31.72 35.6341 31.84 35.5541 32.04C33.7541 35.44 32.0741 36.64 29.1541 38.68C29.8341 36.2 30.4341 34.04 30.8741 32.24C31.3141 30.44 31.7541 28.92 32.1141 27.72ZM12.4341 62.12C11.1141 62.08 10.2341 61.6 9.75406 60.68C9.27406 59.76 9.19406 58.68 9.47406 57.44C10.5941 52.64 16.8741 48 20.9141 45.28C22.5941 44.2 24.1141 43.2 25.4341 42.32C23.6741 48.04 21.0741 56.32 16.4741 60.48C15.2341 61.64 13.8741 62.16 12.4341 62.12ZM31.7941 23.72C32.9541 23.72 34.0341 22.84 34.3541 21.76C34.5141 21.16 34.3941 20.64 34.1541 20.28C33.8741 19.92 33.4741 19.72 32.9141 19.72C31.6341 19.72 30.6741 20.6 30.3541 21.76C30.1941 22.32 30.2341 22.8 30.5141 23.16C30.7541 23.52 31.2341 23.72 31.7941 23.72Z" fill="#363636"/>
</svg>
